<svg id="Icon-Facebook" xmlns="http://www.w3.org/2000/svg" width="40" height="40" viewBox="0 0 40 40">
  <path id="background" d="M4,0H36a4,4,0,0,1,4,4V36a4,4,0,0,1-4,4H4a4,4,0,0,1-4-4V4A4,4,0,0,1,4,0Z" fill="#5b5b5b"/>
  <g id="icons" transform="translate(-314 -7229)">
    <path id="facebook-_176_" data-name="facebook-[#176]" d="M335.821,7259v-9h2.732l.446-4h-3.179v-1.948c0-1.03.026-2.052,1.466-2.052h1.458v-2.86a16.121,16.121,0,0,0-2.519-.14c-2.646,0-4.3,1.657-4.3,4.7v2.3H329v4h2.923v9Z" fill="#fff" fill-rule="evenodd"/>
  </g>
</svg>
