<svg xmlns="http://www.w3.org/2000/svg" viewBox="0 0 500 400.97"><defs><style>.cls-1{fill:#d4d4d6;}.cls-2{fill:none;stroke:#d4d4d6;stroke-miterlimit:10;stroke-width:3px;}</style></defs><g id="Calque_2" data-name="Calque 2"><g id="Calque_1-2" data-name="Calque 1"><path class="cls-1" d="M489.5,164H10.5a10.5,10.5,0,0,0,0,21H66v183.3A32.7,32.7,0,0,0,98.7,401H401.3a32.7,32.7,0,0,0,32.7-32.7V185h55.5a10.5,10.5,0,0,0,0-21Z"/><path class="cls-1" d="M258.9,124a12,12,0,1,0-17.8,0c-97.44.6-175.1,11.55-175.1,25H433C433,135.59,355.87,124.67,258.9,124Z"/><path class="cls-2" d="M246.09,1S236.43,12.41,241,24.41,254.42,47,250.1,63"/><path class="cls-2" d="M285.09,27S275.43,38.41,280,50.41,293.42,73,289.1,89"/><path class="cls-2" d="M216.09,42S206.43,53.41,211,65.41,224.42,88,220.1,104"/></g></g></svg>